<svg width="319" height="396" viewBox="0 0 319 396" fill="none" xmlns="http://www.w3.org/2000/svg">
<path d="M314.151 3.76925e-05H303.856C302.652 0.014679 301.498 0.452581 300.623 1.2268C299.748 2.00102 299.216 3.05494 299.133 4.17926L272.084 357.029C271.236 368.116 260.35 376.993 247.767 376.993H71.2334C58.6502 376.993 47.7645 368.116 46.9157 357.029L19.8675 4.17926C19.7842 3.05494 19.2523 2.00102 18.3773 1.2268C17.5022 0.452581 16.3482 0.014679 15.1442 3.76925e-05H4.95956C4.34709 -0.00241722 3.74085 0.11507 3.17979 0.344964C2.61872 0.574857 2.11525 0.912066 1.7017 1.33492C1.28815 1.75778 0.973687 2.25694 0.778506 2.80032C0.583324 3.3437 0.511745 3.91929 0.568366 4.4901L26.731 374.437C27.5428 386.318 40.3105 395.817 55.1815 395.817H263.929C278.837 395.817 291.568 386.318 292.417 374.437L318.579 4.4901C318.63 3.91749 318.554 3.34117 318.354 2.79775C318.155 2.25432 317.837 1.75568 317.42 1.33345C317.004 0.911219 316.498 0.574636 315.936 0.34509C315.373 0.115544 314.765 -0.00196126 314.151 3.76925e-05Z" fill="#037C70"/>
</svg>
